<?xml version="1.0" encoding="UTF-8"?>
<svg version="1.1" xmlns="http://www.w3.org/2000/svg" width="567" height="276">
<path d="M0 0 C187.11 0 374.22 0 567 0 C567 91.08 567 182.16 567 276 C379.89 276 192.78 276 0 276 C0 184.92 0 93.84 0 0 Z " fill="#FEFEFE" transform="translate(0,0)"/>
<path d="M0 0 C0.87173355 -0.00953201 1.7434671 -0.01906403 2.64161682 -0.02888489 C4.06026283 -0.02751778 4.06026283 -0.02751778 5.50756836 -0.02612305 C6.48221542 -0.03040817 7.45686249 -0.0346933 8.46104431 -0.03910828 C10.52984846 -0.04486135 12.59867285 -0.04534468 14.66748047 -0.04101562 C17.81050008 -0.03787864 20.95255744 -0.06122233 24.09545898 -0.08666992 C26.10782759 -0.08894533 28.12019872 -0.08964529 30.13256836 -0.08862305 C31.06416275 -0.09783279 31.99575714 -0.10704254 32.95558167 -0.11653137 C41.40439772 -0.05765245 49.20023032 1.71426025 55.78491211 7.2746582 C62.33797031 15.65062947 64.82204743 22.61077961 63.78491211 33.2746582 C62.08789284 40.85754179 58.3490155 46.08234998 51.78491211 50.2746582 C50.45901677 50.63644605 49.12602074 50.97413113 47.78491211 51.2746582 C48.29989258 52.03609131 48.81487305 52.79752441 49.34545898 53.58203125 C51.25563876 56.41812962 53.15521915 59.26075162 55.0480957 62.10839844 C55.86851174 63.33805082 56.69302376 64.56498084 57.52172852 65.7890625 C58.71416326 67.55194773 59.89138777 69.32418949 61.06616211 71.09887695 C61.77836914 72.16195068 62.49057617 73.22502441 63.22436523 74.3203125 C64.82263565 77.34607444 65.23955346 78.91942012 64.78491211 82.2746582 C62.43478413 84.62478618 57.72655151 83.94833324 54.5690918 83.98925781 C51.35045931 83.86132214 49.21994211 83.60289383 46.62084961 81.6418457 C44.32128072 78.30010766 42.51923502 74.80078801 40.76196289 71.14868164 C36.39342516 61.49277029 36.39342516 61.49277029 28.33178711 55.4152832 C22.48425988 54.43506188 16.66265102 54.64499301 10.78491211 55.2746582 C10.79538574 56.05180176 10.80585938 56.82894531 10.81665039 57.62963867 C10.85811493 61.13627921 10.88420789 64.64286826 10.90991211 68.1496582 C10.92666992 69.37297852 10.94342773 70.59629883 10.96069336 71.85668945 C10.96713867 73.02329102 10.97358398 74.18989258 10.98022461 75.3918457 C10.99069824 76.47062988 11.00117188 77.54941406 11.01196289 78.66088867 C10.78491211 81.2746582 10.78491211 81.2746582 8.78491211 83.2746582 C5.81616211 83.5402832 5.81616211 83.5402832 2.28491211 83.5246582 C1.11959961 83.52981445 -0.04571289 83.5349707 -1.24633789 83.5402832 C-4.21508789 83.2746582 -4.21508789 83.2746582 -6.21508789 81.2746582 C-6.42745681 78.29677405 -6.51904438 75.41429773 -6.51586914 72.43481445 C-6.52015427 71.55691757 -6.52443939 70.67902069 -6.52885437 69.77452087 C-6.53460289 67.91593285 -6.5350941 66.05732233 -6.53076172 64.19873047 C-6.52760425 61.35190488 -6.55104526 58.50612063 -6.57641602 55.65942383 C-6.57868917 53.85538868 -6.57939243 52.05135074 -6.57836914 50.24731445 C-6.58757889 49.39412125 -6.59678864 48.54092804 -6.60627747 47.66188049 C-6.55986143 41.74400481 -6.55986143 41.74400481 -4.94812012 39.5499115 C-2.83001835 37.99130444 -1.7250727 37.89732815 0.88574219 37.88989258 C1.70702103 37.87978149 2.52829987 37.86967041 3.37446594 37.85925293 C4.70105476 37.86378479 4.70105476 37.86378479 6.05444336 37.8684082 C6.96820236 37.85757202 7.88196136 37.84673584 8.82341003 37.83557129 C11.74814907 37.80126478 14.67249822 37.78571284 17.59741211 37.7746582 C21.43762975 37.76006506 25.27697994 37.72630338 29.11694336 37.6809082 C29.99526321 37.68392944 30.87358307 37.68695068 31.77851868 37.69006348 C36.84395877 37.62841076 40.40947596 37.1217987 44.78491211 34.2746582 C46.52122847 30.80202548 46.38681613 27.06272807 45.78491211 23.2746582 C43.60332066 20.51896374 41.91313717 18.83877074 38.78491211 17.2746582 C37.40701007 17.1673898 36.02429496 17.11852145 34.64233398 17.10107422 C33.36090515 17.08083946 33.36090515 17.08083946 32.05358887 17.06019592 C31.12961304 17.04975754 30.20563721 17.03931915 29.25366211 17.02856445 C27.309647 16.99563695 25.3656367 16.96242512 23.42163086 16.92895508 C20.34695628 16.88144409 17.27230268 16.83699767 14.19750977 16.79785156 C11.23685593 16.75826556 8.27659933 16.70669929 5.31616211 16.65356445 C4.39218628 16.6451503 3.46821045 16.63673615 2.51623535 16.62806702 C1.23480652 16.60310402 1.23480652 16.60310402 -0.07250977 16.57763672 C-0.82592651 16.56732925 -1.57934326 16.55702179 -2.35559082 16.54640198 C-4.21508789 16.2746582 -4.21508789 16.2746582 -6.21508789 14.2746582 C-6.48071289 11.5246582 -6.48071289 11.5246582 -6.46508789 8.2746582 C-6.47024414 7.2021582 -6.47540039 6.1296582 -6.48071289 5.0246582 C-6.04036651 0.46577804 -4.13171598 0.02479241 0 0 Z " fill="#8E84FC" transform="translate(437.215087890625,47.725341796875)"/>
<path d="M0 0 C6.6124545 0.09998671 6.6124545 0.09998671 9.9375 2.53515625 C11.84165477 4.86846712 13.54820845 7.2558245 15.18359375 9.78369141 C16.74991945 12.12330328 18.42784428 14.35900261 20.125 16.60546875 C22.65059589 19.9551964 25.17275463 23.30638469 27.65625 26.6875 C28.18025391 27.39777344 28.70425781 28.10804687 29.24414062 28.83984375 C30.5 30.75 30.5 30.75 31.5 33.75 C32.16 33.75 32.82 33.75 33.5 33.75 C33.7371875 33.22148438 33.974375 32.69296875 34.21875 32.1484375 C35.8842998 29.03060951 37.92622069 26.22803444 40 23.375 C40.89607709 22.1342906 41.79190266 20.8933995 42.6875 19.65234375 C43.14898437 19.01409668 43.61046875 18.37584961 44.0859375 17.71826172 C45.50785796 15.73906235 46.91257005 13.74870867 48.3125 11.75390625 C48.76302734 11.11437012 49.21355469 10.47483398 49.67773438 9.81591797 C50.54671589 8.58143795 51.41269755 7.34483977 52.27539062 6.10595703 C55.27560822 1.86219589 55.27560822 1.86219589 57.5 0.75 C59.6423215 0.60166349 61.79024129 0.52872587 63.9375 0.5 C65.09121094 0.47421875 66.24492188 0.4484375 67.43359375 0.421875 C70.5 0.75 70.5 0.75 72.16838074 1.80369568 C74.19228824 4.76185348 73.90927554 7.75955287 73.87231445 11.21899414 C73.87596512 11.97699814 73.87961578 12.73500214 73.88337708 13.51597595 C73.89148614 16.02259696 73.87787116 18.5285723 73.86328125 21.03515625 C73.86276274 22.77485656 73.86328009 24.51455747 73.86479187 26.2542572 C73.86470213 29.90014391 73.85426903 33.54580954 73.83618164 37.19165039 C73.81347754 41.87164861 73.81295324 46.55132419 73.81969929 51.23136234 C73.82303576 54.82322573 73.81641555 58.41501517 73.80657005 62.00686455 C73.80271346 63.73289033 73.80157173 65.45892433 73.8031559 67.18495369 C73.80352553 69.59359633 73.79093597 72.00182044 73.7746582 74.41040039 C73.77713562 75.12785431 73.77961304 75.84530823 73.78216553 76.58450317 C73.72874412 81.52125588 73.72874412 81.52125588 71.5 83.75 C68.2421875 83.9453125 68.2421875 83.9453125 64.375 83.875 C62.45300781 83.84792969 62.45300781 83.84792969 60.4921875 83.8203125 C59.50476563 83.79710937 58.51734375 83.77390625 57.5 83.75 C56.26788052 81.28576104 56.34220092 79.59765337 56.29467773 76.84130859 C56.2647599 75.30994766 56.2647599 75.30994766 56.23423767 73.74765015 C56.21752518 72.64240997 56.20081268 71.5371698 56.18359375 70.3984375 C56.16281265 69.2692691 56.14203156 68.14010071 56.12062073 66.97671509 C56.05508665 63.35954028 55.99622226 59.74229119 55.9375 56.125 C55.89431846 53.67707556 55.85070429 51.22915872 55.80664062 48.78125 C55.69940133 42.7709125 55.59764213 36.76050065 55.5 30.75 C54.11972533 32.58979398 52.73953397 34.42965047 51.359375 36.26953125 C50.94766052 36.81793167 50.53594604 37.36633209 50.11175537 37.93135071 C47.8613107 40.92996933 45.62148311 43.93602177 43.390625 46.94921875 C42.51134044 48.11267789 41.63117265 49.2754702 40.75 50.4375 C40.30785156 51.04271484 39.86570313 51.64792969 39.41015625 52.27148438 C37.32034146 55.00172627 36.00011085 56.59181577 32.671875 57.64453125 C31.59679687 57.69673828 31.59679687 57.69673828 30.5 57.75 C23.35776742 48.99880294 16.45679097 40.11278213 9.81762695 30.97290039 C6.84919784 26.8962137 3.83570996 22.87759099 0.6875 18.9375 C0.07898193 18.16970215 -0.52953613 17.4019043 -1.15649414 16.61083984 C-2.31762672 15.15317677 -3.49080788 13.70500604 -4.67749023 12.26806641 C-8.52063891 7.41941845 -8.52063891 7.41941845 -8.41015625 3.8359375 C-6.63372664 -0.2353647 -4.27248153 0.31039396 0 0 Z " fill="#8E84FC" transform="translate(45.5,47.25)"/>
<path d="M0 0 C6.58987124 0.08653366 6.58987124 0.08653366 9.5078125 1.85546875 C11.37911165 3.97537045 12.85766209 6.17508021 14.375 8.5625 C15.48113986 10.09981278 16.58780849 11.63676717 17.70239258 13.16796875 C18.98363042 14.93875645 20.24304109 16.72362734 21.5 18.51171875 C24.75077271 23.11583222 28.09100072 27.65270183 31.4375 32.1875 C31.99058838 32.93813721 32.54367676 33.68877441 33.11352539 34.4621582 C37.83279455 40.85491728 42.6015945 47.21012087 47.375 53.5625 C47.38308685 52.92800934 47.39117371 52.29351868 47.39950562 51.63980103 C47.48536183 45.05392936 47.58485639 38.46836529 47.69238281 31.8828125 C47.73073762 29.42290398 47.76557884 26.96293813 47.796875 24.50292969 C47.84238451 20.97309837 47.90040198 17.44366405 47.9609375 13.9140625 C47.97248871 12.80882233 47.98403992 11.70358215 47.99594116 10.56484985 C48.01581085 9.54394257 48.03568054 8.52303528 48.05615234 7.47119141 C48.06947601 6.56962311 48.08279968 5.66805481 48.0965271 4.73916626 C48.375 2.5625 48.375 2.5625 50.375 0.5625 C53.08984375 0.26171875 53.08984375 0.26171875 56.3125 0.25 C57.90384766 0.22486328 57.90384766 0.22486328 59.52734375 0.19921875 C62.375 0.5625 62.375 0.5625 64.02970886 1.61839294 C66.07315558 4.57141855 65.78432617 7.56731413 65.74731445 11.03149414 C65.75096512 11.78949814 65.75461578 12.54750214 65.75837708 13.32847595 C65.76648614 15.83509696 65.75287116 18.3410723 65.73828125 20.84765625 C65.73776274 22.58735656 65.73828009 24.32705747 65.73979187 26.0667572 C65.73970213 29.71264391 65.72926903 33.35830954 65.71118164 37.00415039 C65.68847754 41.68414861 65.68795324 46.36382419 65.69469929 51.04386234 C65.69803576 54.63572573 65.69141555 58.22751517 65.68157005 61.81936455 C65.67771346 63.54539033 65.67657173 65.27142433 65.6781559 66.99745369 C65.67852553 69.40609633 65.66593597 71.81432044 65.6496582 74.22290039 C65.65213562 74.94035431 65.65461304 75.65780823 65.65716553 76.39700317 C65.60374412 81.33375588 65.60374412 81.33375588 63.375 83.5625 C58.07704413 84.66844829 53.61627254 84.72781311 48.375 83.5625 C44.60060687 80.45637761 42.20701146 76.72584657 39.67333984 72.61181641 C37.81868658 69.6844077 35.7671072 66.9162138 33.71557617 64.12475586 C32.03627587 61.83931025 30.3787736 59.53946624 28.7265625 57.234375 C25.46942339 52.6936622 22.20665601 48.15706951 18.9375 43.625 C18.40842041 42.89128174 17.87934082 42.15756348 17.33422852 41.40161133 C13.86186016 36.59536772 10.3577131 31.81362731 6.83398438 27.04492188 C4.50923821 23.89822073 2.19263823 20.74555836 -0.12451172 17.59326172 C-1.43812797 15.81541271 -2.76485057 14.04862092 -4.09765625 12.28515625 C-4.74605469 11.40730469 -5.39445313 10.52945313 -6.0625 9.625 C-6.59746094 8.91472656 -7.13242188 8.20445313 -7.68359375 7.47265625 C-8.625 5.5625 -8.625 5.5625 -8.34765625 3.37109375 C-6.77408163 -0.56709569 -3.94439408 0.19514371 0 0 Z " fill="#8E84FC" transform="translate(238.625,47.4375)"/>
<path d="M0 0 C10.21711321 0.3584952 18.67779375 5.00936535 26 12 C35.52945715 23.39299544 38.01293476 36.52530905 37 51 C34.56013009 63.09056554 26.78406041 72.61217548 16.74609375 79.40625 C11.6982477 82.33586762 5.96113421 84.90320215 0 84 C-2.67823591 81.32176409 -2.36057322 79.79571151 -2.4375 76.0625 C-2.47746094 75.00160156 -2.51742187 73.94070312 -2.55859375 72.84765625 C-2 70 -2 70 0.21484375 68.2890625 C1.13394531 67.86367187 2.05304688 67.43828125 3 67 C10.46930337 63.04360337 15.81390995 59.5014886 18.6015625 51.2109375 C19.97888479 43.56814912 20.40806644 34.3408045 16.1875 27.5703125 C12.40544788 22.56904622 8.85167712 20.21583452 3.0859375 17.9921875 C0.75029375 16.88122587 -0.5016846 16.11830798 -2 14 C-2.36328125 11.15234375 -2.36328125 11.15234375 -2.3125 7.9375 C-2.30863281 6.87402344 -2.30476562 5.81054688 -2.30078125 4.71484375 C-2 2 -2 2 0 0 Z " fill="#8E84FC" transform="translate(180,48)"/>
<path d="M0 0 C1 1 1 1 1.1328125 3.65234375 C1.13023437 4.73644531 1.12765625 5.82054687 1.125 6.9375 C1.12886719 8.55978516 1.12886719 8.55978516 1.1328125 10.21484375 C1 13 1 13 0 15 C-1.55764636 15.68651821 -3.14737306 16.30127852 -4.75 16.875 C-11.9553173 19.70383012 -15.73666062 22.89233729 -19.05078125 29.94921875 C-21.26456047 37.06428694 -21.16940631 45.46453359 -18.8125 52.5625 C-14.63859359 60.47852939 -10.61380249 63.05261128 -2.546875 66.80078125 C0 68 0 68 1 69 C1.12514928 70.97619447 1.1757276 72.95738173 1.1875 74.9375 C1.20167969 76.01902344 1.21585938 77.10054688 1.23046875 78.21484375 C1 81 1 81 -1 83 C-9.67336393 83.72901119 -17.6520531 79.12354423 -24.1875 73.875 C-33.70629679 64.91499897 -37.68280343 53.93023196 -38.375 41 C-37.71592647 28.68850642 -34.2946723 18.10027801 -25.34375 9.42578125 C-18.08688189 3.23551326 -9.95832085 -2.76620024 0 0 Z " fill="#8D83FC" transform="translate(170,49)"/>
<path d="M0 0 C1.09461044 -0.00637985 2.18922089 -0.0127597 3.31700134 -0.01933289 C5.10443504 -0.02100212 5.10443504 -0.02100212 6.92797852 -0.02270508 C8.14260269 -0.02603348 9.35722687 -0.02936188 10.60865784 -0.03279114 C13.18360006 -0.03786556 15.75854888 -0.04019931 18.33349609 -0.04003906 C22.28632374 -0.04222496 26.23887222 -0.06037394 30.19165039 -0.0793457 C32.68709214 -0.08227955 35.18253522 -0.0842644 37.67797852 -0.08520508 C38.86757675 -0.09239059 40.05717499 -0.09957611 41.28282166 -0.10697937 C42.38058426 -0.10390274 43.47834686 -0.10082611 44.609375 -0.09765625 C45.57898666 -0.09908127 46.54859833 -0.10050629 47.54759216 -0.10197449 C49.86938477 0.14526367 49.86938477 0.14526367 51.86938477 2.14526367 C52.17016602 4.64135742 52.17016602 4.64135742 52.18188477 7.58276367 C52.19864258 8.55084961 52.21540039 9.51893555 52.23266602 10.51635742 C51.80724207 13.59496298 51.26316814 14.25926988 48.86938477 16.14526367 C45.8564224 16.40699121 43.05457909 16.4938648 40.04516602 16.43823242 C39.18376511 16.43398758 38.3223642 16.42974274 37.43486023 16.42536926 C34.68355046 16.40857616 31.93297314 16.37092323 29.18188477 16.33276367 C27.31666097 16.31771763 25.45142569 16.30402908 23.58618164 16.29174805 C19.01363379 16.2586706 14.44163346 16.20688427 9.86938477 16.14526367 C9.8798584 17.07387207 9.89033203 18.00248047 9.90112305 18.95922852 C9.93517681 22.39952057 9.9602697 25.83963394 9.97924805 29.2800293 C9.98931519 30.76996687 10.00296994 32.25988464 10.02026367 33.74975586 C10.04448129 35.88945395 10.0558604 38.0288912 10.06469727 40.16870117 C10.0751709 41.45695801 10.08564453 42.74521484 10.09643555 44.07250977 C9.86938477 47.14526367 9.86938477 47.14526367 7.86938477 49.14526367 C5.11938477 49.41088867 5.11938477 49.41088867 1.86938477 49.39526367 C0.26063477 49.40299805 0.26063477 49.40299805 -1.38061523 49.41088867 C-4.13061523 49.14526367 -4.13061523 49.14526367 -6.13061523 47.14526367 C-6.37785339 45.16514587 -6.37785339 45.16514587 -6.37353516 42.71142578 C-6.37661179 41.79384995 -6.37968842 40.87627411 -6.38285828 39.93089294 C-6.37567276 38.93815872 -6.36848724 37.9454245 -6.36108398 36.92260742 C-6.36062576 35.90679092 -6.36016754 34.89097443 -6.35969543 33.84437561 C-6.35667119 31.6949039 -6.3487798 29.54543443 -6.33642578 27.39599609 C-6.31817147 24.09293925 -6.31591603 20.79016255 -6.31616211 17.48706055 C-6.31124702 15.40307373 -6.30541874 13.31908883 -6.29858398 11.23510742 C-6.29691475 9.74296974 -6.29691475 9.74296974 -6.29521179 8.22068787 C-6.28883194 7.30626419 -6.28245209 6.39184052 -6.27587891 5.44970703 C-6.27206711 4.64077499 -6.26825531 3.83184296 -6.264328 2.99839783 C-5.98406569 -0.8857762 -3.28784829 0.01293601 0 0 Z " fill="#8C82FC" transform="translate(328.130615234375,82.854736328125)"/>
<path d="M0 0 C1.26392578 -0.02900391 2.52785156 -0.05800781 3.83007812 -0.08789062 C11.19721306 -0.13795479 16.22885141 0.22314973 22.4375 4.3125 C26.821089 8.92088844 27.79949013 12.77031915 27.71875 18.95703125 C27.24406879 22.93248642 25.85387083 25.11244134 23.4375 28.3125 C20.6875 29.75 20.6875 29.75 18.4375 30.3125 C20.82575585 34.79429077 23.19311937 39.10563 26.3125 43.125 C28.4375 46.3125 28.4375 46.3125 28.0703125 48.51171875 C27.86148438 49.10597656 27.65265625 49.70023438 27.4375 50.3125 C24.2481944 50.96337869 21.60489143 51.14337375 18.4375 50.3125 C15.46831492 47.34331492 13.48992027 43.95474841 11.4375 40.3125 C10.59832031 38.97251953 10.59832031 38.97251953 9.7421875 37.60546875 C8.4375 35.3125 8.4375 35.3125 8.4375 33.3125 C4.1475 33.3125 -0.1425 33.3125 -4.5625 33.3125 C-4.55089844 34.45589844 -4.53929687 35.59929687 -4.52734375 36.77734375 C-4.51796712 38.26822754 -4.50886679 39.75911309 -4.5 41.25 C-4.49162109 42.00474609 -4.48324219 42.75949219 -4.47460938 43.53710938 C-4.46597559 45.46244313 -4.51025667 47.38785581 -4.5625 49.3125 C-5.5625 50.3125 -5.5625 50.3125 -7.375 50.4453125 C-8.096875 50.44273437 -8.81875 50.44015625 -9.5625 50.4375 C-10.284375 50.44007813 -11.00625 50.44265625 -11.75 50.4453125 C-13.5625 50.3125 -13.5625 50.3125 -14.5625 49.3125 C-14.66209621 47.47090977 -14.69330411 45.62553033 -14.6953125 43.78125 C-14.69660156 42.66105469 -14.69789063 41.54085937 -14.69921875 40.38671875 C-14.69535156 39.20722656 -14.69148437 38.02773437 -14.6875 36.8125 C-14.69136719 35.63300781 -14.69523438 34.45351562 -14.69921875 33.23828125 C-14.69792969 32.11808594 -14.69664062 30.99789062 -14.6953125 29.84375 C-14.69418457 28.80798828 -14.69305664 27.77222656 -14.69189453 26.70507812 C-14.5625 24.3125 -14.5625 24.3125 -13.5625 23.3125 C-11.67258101 23.16651382 -9.77759498 23.08514909 -7.8828125 23.03125 C-6.72652344 22.99386719 -5.57023438 22.95648438 -4.37890625 22.91796875 C-3.16074219 22.88316406 -1.94257813 22.84835938 -0.6875 22.8125 C1.70585052 22.74368161 4.09909257 22.67094661 6.4921875 22.59375 C8.09296143 22.54831055 8.09296143 22.54831055 9.72607422 22.50195312 C12.53350512 22.41901681 12.53350512 22.41901681 15.4375 21.3125 C16.63905782 16.80358476 16.63905782 16.80358476 15.34228516 12.61181641 C12.63227738 10.76323125 10.53566393 10.89423386 7.2734375 10.8359375 C5.46746094 10.78953125 5.46746094 10.78953125 3.625 10.7421875 C2.366875 10.72414062 1.10875 10.70609375 -0.1875 10.6875 C-2.67977061 10.63674092 -5.17196926 10.58226374 -7.6640625 10.5234375 C-9.32429443 10.49709229 -9.32429443 10.49709229 -11.01806641 10.47021484 C-13.5625 10.3125 -13.5625 10.3125 -14.5625 9.3125 C-14.6953125 7.5 -14.6953125 7.5 -14.6875 5.3125 C-14.69007813 4.590625 -14.69265625 3.86875 -14.6953125 3.125 C-14.30806649 -2.15976911 -3.90489837 0.02924287 0 0 Z " fill="#8F85FC" transform="translate(243.5625,146.6875)"/>
<path d="M0 0 C2.02633774 -0.01712126 4.05100397 -0.06097371 6.0769043 -0.10522461 C8.00373047 -0.11779297 8.00373047 -0.11779297 9.96948242 -0.13061523 C11.73521606 -0.15248901 11.73521606 -0.15248901 13.53662109 -0.17480469 C18.98914209 0.5953254 23.54242792 4.00855885 26.94604492 8.32641602 C28.99854083 12.7283647 28.56749591 17.59667916 27.86401367 22.29516602 C25.80594572 26.41130193 23.09844812 29.08791169 19.86401367 32.29516602 C20.83854492 33.74149414 20.83854492 33.74149414 21.83276367 35.21704102 C22.67699313 36.49276553 23.52071682 37.76882483 24.36401367 39.04516602 C24.79327148 39.67938477 25.2225293 40.31360352 25.66479492 40.96704102 C27.94321318 44.43891645 28.86401367 46.03941324 28.86401367 50.29516602 C25.17950982 51.42403528 22.50787347 51.65160284 18.86401367 50.29516602 C16.8799575 47.85118351 15.46299773 45.13081555 13.98901367 42.35766602 C10.99029412 36.4232093 10.99029412 36.4232093 5.56713867 33.01000977 C2.55691408 32.81568776 -0.15693663 32.84472551 -3.13598633 33.29516602 C-3.12438477 34.43856445 -3.1127832 35.58196289 -3.10083008 36.76000977 C-3.09145345 38.25089356 -3.08235312 39.7417791 -3.07348633 41.23266602 C-3.06510742 41.98741211 -3.05672852 42.7421582 -3.0480957 43.51977539 C-3.03946192 45.44510915 -3.083743 47.37052182 -3.13598633 49.29516602 C-4.13598633 50.29516602 -4.13598633 50.29516602 -6.20239258 50.39282227 C-7.02610352 50.3812207 -7.84981445 50.36961914 -8.69848633 50.35766602 C-9.52477539 50.34864258 -10.35106445 50.33961914 -11.20239258 50.33032227 C-11.84047852 50.3187207 -12.47856445 50.30711914 -13.13598633 50.29516602 C-13.1648517 45.98267992 -13.18273888 41.6702184 -13.19848633 37.35766602 C-13.20686523 36.1259668 -13.21524414 34.89426758 -13.22387695 33.62524414 C-13.22709961 32.45541992 -13.23032227 31.2855957 -13.23364258 30.08032227 C-13.23887939 28.99630127 -13.24411621 27.91228027 -13.24951172 26.79541016 C-13.13598633 24.29516602 -13.13598633 24.29516602 -12.13598633 23.29516602 C-10.24570914 23.16138271 -8.35082613 23.09164108 -6.45629883 23.04907227 C-4.72186523 22.99976563 -4.72186523 22.99976563 -2.95239258 22.94946289 C-0.49935702 22.88846148 1.95377306 22.83114571 4.40698242 22.77758789 C5.56584961 22.74342773 6.7247168 22.70926758 7.91870117 22.67407227 C8.98588379 22.64901611 10.05306641 22.62395996 11.15258789 22.59814453 C14.08287478 22.48066462 14.08287478 22.48066462 16.86401367 20.29516602 C17.36401367 16.79516602 17.36401367 16.79516602 16.86401367 13.29516602 C13.42493678 11.00244809 11.97767262 11.01155949 7.91870117 10.91625977 C6.75983398 10.88209961 5.6009668 10.84793945 4.40698242 10.81274414 C3.19655273 10.78631836 1.98612305 10.75989258 0.73901367 10.73266602 C-1.65953077 10.67301967 -4.05798177 10.60943935 -6.45629883 10.54125977 C-7.52122559 10.51733154 -8.58615234 10.49340332 -9.68334961 10.46875 C-12.13598633 10.29516602 -12.13598633 10.29516602 -13.13598633 9.29516602 C-13.26879883 7.48266602 -13.26879883 7.48266602 -13.26098633 5.29516602 C-13.26356445 4.57329102 -13.26614258 3.85141602 -13.26879883 3.10766602 C-12.8910485 -2.04751494 -3.85175273 0.02267098 0 0 Z " fill="#8F85FC" transform="translate(341.135986328125,146.704833984375)"/>
<path d="M0 0 C1.17691406 -0.020625 2.35382813 -0.04125 3.56640625 -0.0625 C11.05995971 -0.09621678 16.10940024 0.32835633 22.37109375 4.6171875 C26.01970959 8.43389676 26.82403092 11.47092765 27 16.75 C26.70513947 22.4571894 26.03270749 25.84199354 22.375 30.25 C16.63903807 34.35239545 12.37750214 34.77443354 5.4375 34.5 C4.12555664 34.47292969 4.12555664 34.47292969 2.78710938 34.4453125 C0.64925892 34.39858353 -1.48802045 34.32685441 -3.625 34.25 C-3.61339844 35.32121094 -3.60179687 36.39242187 -3.58984375 37.49609375 C-3.58046701 38.89322743 -3.57136669 40.29036299 -3.5625 41.6875 C-3.55412109 42.39455078 -3.54574219 43.10160156 -3.53710938 43.83007812 C-3.52846412 45.63693559 -3.57279989 47.44387603 -3.625 49.25 C-4.625 50.25 -4.625 50.25 -6.4375 50.3828125 C-7.159375 50.38023437 -7.88125 50.37765625 -8.625 50.375 C-9.346875 50.37757813 -10.06875 50.38015625 -10.8125 50.3828125 C-12.625 50.25 -12.625 50.25 -13.625 49.25 C-13.72446453 47.48140807 -13.75580217 45.70888549 -13.7578125 43.9375 C-13.75910156 42.86242187 -13.76039063 41.78734375 -13.76171875 40.6796875 C-13.75591797 38.98199219 -13.75591797 38.98199219 -13.75 37.25 C-13.75386719 36.11820313 -13.75773437 34.98640625 -13.76171875 33.8203125 C-13.76042969 32.74523437 -13.75914062 31.67015625 -13.7578125 30.5625 C-13.75668457 29.56863281 -13.75555664 28.57476562 -13.75439453 27.55078125 C-13.625 25.25 -13.625 25.25 -12.625 24.25 C-10.5541528 24.0915735 -8.47821971 23.99875578 -6.40234375 23.93359375 C-5.14228516 23.89169922 -3.88222656 23.84980469 -2.58398438 23.80664062 C-1.24349264 23.76682404 0.0970022 23.72711186 1.4375 23.6875 C2.78191523 23.64431958 4.1263166 23.60070544 5.47070312 23.55664062 C8.7720234 23.45014642 12.07342236 23.3481354 15.375 23.25 C15.57073608 21.81359829 15.75627816 20.37580496 15.9375 18.9375 C16.04191406 18.13699219 16.14632813 17.33648437 16.25390625 16.51171875 C16.52255178 14.08182884 16.52255178 14.08182884 15.375 11.25 C14.11055054 11.21241577 14.11055054 11.21241577 12.82055664 11.17407227 C9.70258326 11.07911845 6.58478497 10.97987552 3.46704102 10.87768555 C2.11585853 10.83428777 0.76461947 10.7926163 -0.58666992 10.75268555 C-2.52536701 10.69510048 -4.46386276 10.63085702 -6.40234375 10.56640625 C-7.57015381 10.52974854 -8.73796387 10.49309082 -9.94116211 10.45532227 C-12.625 10.25 -12.625 10.25 -13.625 9.25 C-13.7578125 7.4375 -13.7578125 7.4375 -13.75 5.25 C-13.75257813 4.528125 -13.75515625 3.80625 -13.7578125 3.0625 C-13.37861244 -2.11246559 -3.83357873 0.0164708 0 0 Z " fill="#8F85FC" transform="translate(293.625,146.75)"/>
<path d="M0 0 C1.15136948 -0.00953201 2.30273895 -0.01906403 3.48899841 -0.02888489 C4.73794388 -0.02797348 5.98688934 -0.02706207 7.27368164 -0.02612305 C8.55110733 -0.03040817 9.82853302 -0.0346933 11.14466858 -0.03910828 C13.85081667 -0.04486092 16.55658451 -0.04627621 19.26269531 -0.04101562 C22.73093282 -0.03522219 26.19863608 -0.05214587 29.66678524 -0.0753603 C32.9732469 -0.09363422 36.27967854 -0.08991242 39.58618164 -0.08862305 C40.83310287 -0.09783279 42.08002411 -0.10704254 43.36473083 -0.11653137 C44.51925247 -0.11030258 45.67377411 -0.10407379 46.86328125 -0.09765625 C48.38978554 -0.09860039 48.38978554 -0.09860039 49.9471283 -0.0995636 C52.49633789 0.2746582 52.49633789 0.2746582 54.32569885 1.63362122 C56.0372044 4.03286113 55.8592212 5.92655304 55.80883789 8.8371582 C55.8049707 9.80782227 55.80110352 10.77848633 55.79711914 11.77856445 C55.49633789 14.2746582 55.49633789 14.2746582 53.49633789 16.2746582 C51.02941895 16.52862549 51.02941895 16.52862549 47.88500977 16.53344727 C46.71039185 16.53975159 45.53577393 16.54605591 44.32556152 16.55255127 C42.41462708 16.54647858 42.41462708 16.54647858 40.46508789 16.5402832 C39.16309448 16.54219666 37.86110107 16.54411011 36.51965332 16.54608154 C33.76232161 16.54903211 31.0051194 16.54473744 28.24780273 16.53540039 C24.71006716 16.52400573 21.17263502 16.53056559 17.63491058 16.54254532 C14.26577855 16.55150214 10.89672855 16.5452346 7.52758789 16.5402832 C6.25363159 16.54433167 4.97967529 16.54838013 3.66711426 16.55255127 C2.49249634 16.54624695 1.31787842 16.53994263 0.10766602 16.53344727 C-0.92998901 16.53185608 -1.96764404 16.53026489 -3.03674316 16.52862549 C-5.50366211 16.2746582 -5.50366211 16.2746582 -7.50366211 14.2746582 C-7.76928711 11.5246582 -7.76928711 11.5246582 -7.75366211 8.2746582 C-7.75881836 7.2021582 -7.76397461 6.1296582 -7.76928711 5.0246582 C-7.26526472 -0.19345593 -4.55230112 0.02062619 0 0 Z " fill="#8C82FC" transform="translate(329.503662109375,47.725341796875)"/>
<path d="M0 0 C3.59551892 -0.62778902 5.54275994 -0.91174166 9 0 C12.64072672 3.16667376 15.26148694 7.06022701 18 11 C18.86862602 12.20230754 19.73978077 13.40279167 20.61328125 14.6015625 C22.69970245 17.47904206 24.75460837 20.37681447 26.79492188 23.28710938 C28.84659039 26.20333837 30.92474244 29.10052668 33 32 C33.03758423 30.59923218 33.03758423 30.59923218 33.07592773 29.17016602 C33.17086928 25.71674811 33.27011258 22.2635104 33.37231445 18.81030273 C33.41571813 17.31360731 33.45738913 15.81686061 33.49731445 14.32006836 C33.55488616 12.17285688 33.61861716 10.02590479 33.68359375 7.87890625 C33.72025146 6.5854126 33.75690918 5.29191895 33.79467773 3.95922852 C34 1 34 1 35 0 C41.52542373 -0.23728814 41.52542373 -0.23728814 44 1 C44.0252689 7.81761894 44.04283244 14.63522589 44.05493164 21.45288086 C44.05997333 23.77417451 44.06680651 26.09546497 44.07543945 28.41674805 C44.08751225 31.74528795 44.09322979 35.07378602 44.09765625 38.40234375 C44.10281754 39.44712387 44.10797882 40.49190399 44.11329651 41.56834412 C44.11337204 42.52926468 44.11344757 43.49018524 44.11352539 44.48022461 C44.115746 45.33071884 44.11796661 46.18121307 44.12025452 47.05747986 C44 49 44 49 43 50 C41.14453125 50.34375 41.14453125 50.34375 38.8125 50.5 C37.67748047 50.60828125 37.67748047 50.60828125 36.51953125 50.71875 C32.39565292 49.54232579 30.50453653 46.33991219 28 43 C27.5150708 42.35417969 27.0301416 41.70835937 26.53051758 41.04296875 C24.9986717 38.96008634 23.49605846 36.8587211 22 34.75 C18.41837159 29.72392886 14.81321275 24.72611693 11.078125 19.8125 C10.43875 18.9659082 9.799375 18.11931641 9.140625 17.24707031 C7.90468248 15.61468136 6.66020908 13.98870738 5.40625 12.37011719 C2.32822496 8.28432133 0.23615712 5.29666693 0 0 Z " fill="#8F86FC" transform="translate(84,147)"/>
<path d="M0 0 C1.1653125 0.00515625 2.330625 0.0103125 3.53125 0.015625 C4.6965625 0.01046875 5.861875 0.0053125 7.0625 0 C10.03125 0.265625 10.03125 0.265625 12.03125 2.265625 C12.28521729 4.23901367 12.28521729 4.23901367 12.29003906 6.68359375 C12.29634338 7.59794189 12.30264771 8.51229004 12.30914307 9.4543457 C12.3050946 10.44394287 12.30104614 11.43354004 12.296875 12.453125 C12.29878845 13.46656982 12.3007019 14.48001465 12.30267334 15.52416992 C12.30403591 17.66943612 12.30033447 19.81471053 12.29199219 21.95996094 C12.28129382 25.25214072 12.29188519 28.54377478 12.3046875 31.8359375 C12.30336592 33.91666788 12.30080355 35.99739791 12.296875 38.078125 C12.30092346 39.06772217 12.30497192 40.05731934 12.30914307 41.0769043 C12.30283875 41.99125244 12.29653442 42.90560059 12.29003906 43.84765625 C12.28765228 45.05772339 12.28765228 45.05772339 12.28521729 46.29223633 C12.03125 48.265625 12.03125 48.265625 10.03125 50.265625 C7.0625 50.56640625 7.0625 50.56640625 3.53125 50.578125 C2.3659375 50.59488281 1.200625 50.61164063 0 50.62890625 C-0.9796875 50.50902344 -1.959375 50.38914063 -2.96875 50.265625 C-5.06130888 47.12678668 -5.22030871 46.4008123 -5.22753906 42.82592773 C-5.23384338 41.93167587 -5.24014771 41.03742401 -5.24664307 40.11607361 C-5.2425946 39.15351151 -5.23854614 38.1909494 -5.234375 37.19921875 C-5.23628845 36.20938492 -5.2382019 35.21955109 -5.24017334 34.19972229 C-5.24153438 32.10751084 -5.23784362 30.01529093 -5.22949219 27.9230957 C-5.21878031 24.71221054 -5.22939618 21.50188347 -5.2421875 18.29101562 C-5.24086611 16.26041543 -5.23830415 14.22981558 -5.234375 12.19921875 C-5.23842346 11.23463242 -5.24247192 10.27004608 -5.24664307 9.27622986 C-5.24033875 8.38513016 -5.23403442 7.49403046 -5.22753906 6.57592773 C-5.22515228 5.39703224 -5.22515228 5.39703224 -5.22271729 4.19432068 C-4.76434664 0.71333104 -3.30656979 0.29585098 0 0 Z " fill="#8F86FC" transform="translate(400.96875,81.734375)"/>
<path d="M0 0 C1.93166016 0.01740234 1.93166016 0.01740234 3.90234375 0.03515625 C5.19269531 0.04417969 6.48304688 0.05320312 7.8125 0.0625 C8.81152344 0.07410156 9.81054688 0.08570312 10.83984375 0.09765625 C12.01911872 2.4562062 11.97268133 3.8858234 11.98510742 6.515625 C11.99148727 7.42997314 11.99786713 8.34432129 12.00444031 9.28637695 C12.00555313 10.27597412 12.00666595 11.26557129 12.0078125 12.28515625 C12.0111409 13.29860107 12.0144693 14.3120459 12.01789856 15.35620117 C12.0229669 17.50146022 12.02530691 19.64672716 12.02514648 21.79199219 C12.02733475 25.08411547 12.04549643 28.37590473 12.06445312 31.66796875 C12.06738663 33.74869677 12.06937171 35.82942638 12.0703125 37.91015625 C12.07749802 38.89975342 12.08468353 39.88935059 12.09208679 40.90893555 C12.08901016 41.82328369 12.08593353 42.73763184 12.08276367 43.6796875 C12.08418869 44.48639893 12.08561371 45.29311035 12.08708191 46.12426758 C11.83984375 48.09765625 11.83984375 48.09765625 9.83984375 50.09765625 C7.08984375 50.36328125 7.08984375 50.36328125 3.83984375 50.34765625 C2.23109375 50.35539062 2.23109375 50.35539062 0.58984375 50.36328125 C-2.16015625 50.09765625 -2.16015625 50.09765625 -4.16015625 48.09765625 C-4.40739441 46.07957458 -4.40739441 46.07957458 -4.40307617 43.57202148 C-4.4061528 42.6344249 -4.40922943 41.69682831 -4.41239929 40.7308197 C-4.40521378 39.7162117 -4.39802826 38.7016037 -4.390625 37.65625 C-4.39016678 36.61823746 -4.38970856 35.58022491 -4.38923645 34.51075745 C-4.38621208 32.31420754 -4.3783203 30.11765982 -4.3659668 27.92114258 C-4.34771305 24.54565903 -4.34545704 21.17044961 -4.34570312 17.79492188 C-4.34078802 15.66536219 -4.33495974 13.53580438 -4.328125 11.40625 C-4.32701218 10.38961777 -4.32589935 9.37298553 -4.32475281 8.32554626 C-4.31837296 7.39110184 -4.3119931 6.45665741 -4.30541992 5.49389648 C-4.30160812 4.66719955 -4.29779633 3.84050262 -4.29386902 2.98875427 C-4.0626907 -0.28079782 -3.35259101 0.10360294 0 0 Z " fill="#8C82FC" transform="translate(520.16015625,81.90234375)"/>
<path d="M0 0 C0.3125 3.3125 0.3125 3.3125 0 7 C-2.375 8.875 -2.375 8.875 -5 10 C-5.99 10.495 -5.99 10.495 -7 11 C-6.67 12.65 -6.34 14.3 -6 16 C-5.42556152 16.16081055 -4.85112305 16.32162109 -4.25927734 16.48730469 C-1.62796254 17.23062594 0.99841205 17.99015258 3.625 18.75 C4.52863281 19.00265625 5.43226563 19.2553125 6.36328125 19.515625 C12.57803562 21.33015182 17.62062162 23.14474594 21.875 28.25 C23.36637686 31.89558788 23.68604454 35.15513499 23 39 C20.25281671 44.20002552 17.41788869 46.9711112 12.0625 49.25 C8.88651614 50.02779197 7.10081724 49.91200507 4 49 C4 46.36 4 43.72 4 41 C6.64 39.68 9.28 38.36 12 37 C12 35.68 12 34.36 12 33 C6.46294114 30.89013424 1.02800144 28.96331656 -4.75 27.625 C-9.88098487 26.28712142 -13.5967456 24.10959021 -17 20 C-18.74206859 14.77379424 -18.79597605 10.65563018 -16.4375 5.75 C-11.44791311 0.12072249 -7.58771952 -1.85821703 0 0 Z " fill="#8F85FC" transform="translate(509,148)"/>
<path d="M0 0 C1 1 1 1 1.09765625 2.84765625 C1.06510417 4.8984375 1.03255208 6.94921875 1 9 C-0.4540625 9.61875 -0.4540625 9.61875 -1.9375 10.25 C-5.12260099 11.64899168 -5.12260099 11.64899168 -5.875 14.1875 C-5.91625 14.785625 -5.9575 15.38375 -6 16 C-2.68917563 18.20721625 0.38992928 18.96010746 4.1875 19.875 C11.11405496 21.6462155 17.02049229 23.39293076 22.5 28.1875 C25.17897804 33.21058383 24.57102797 37.87903898 23.125 43.25 C19.96378883 47.34097916 15.85163464 49.33363309 11 51 C8.2421875 51.1953125 8.2421875 51.1953125 6 51 C5 50 5 50 4.8125 46.5625 C5 43 5 43 7 41 C8.98356483 40.28591666 10.98315437 39.61382258 13 39 C13 37.35 13 35.7 13 34 C11.96101563 33.69707031 10.92203125 33.39414063 9.8515625 33.08203125 C-10.13798348 27.13458952 -10.13798348 27.13458952 -15.625 21.125 C-17.28558071 17.35095293 -17.5835728 15.08500963 -17 11 C-13.22105738 3.86199727 -8.25478314 -0.43446227 0 0 Z " fill="#8F86FC" transform="translate(414,147)"/>
<path d="M0 0 C1.07507813 -0.00128906 2.15015625 -0.00257813 3.2578125 -0.00390625 C4.38960937 -0.00003906 5.52140625 0.00382813 6.6875 0.0078125 C7.81929687 0.00394531 8.95109375 0.00007812 10.1171875 -0.00390625 C11.19226563 -0.00261719 12.26734375 -0.00132812 13.375 0 C14.86580078 0.00169189 14.86580078 0.00169189 16.38671875 0.00341797 C18.6875 0.1328125 18.6875 0.1328125 19.6875 1.1328125 C19.8203125 2.9453125 19.8203125 2.9453125 19.8125 5.1328125 C19.81636719 6.215625 19.81636719 6.215625 19.8203125 7.3203125 C19.6875 9.1328125 19.6875 9.1328125 18.6875 10.1328125 C16.15700598 10.20594817 13.65445163 10.22528777 11.125 10.1953125 C10.41408203 10.19080078 9.70316406 10.18628906 8.97070312 10.18164062 C7.20959987 10.16982114 5.44853964 10.15188513 3.6875 10.1328125 C3.69273682 11.33929443 3.69797363 12.54577637 3.70336914 13.78881836 C3.72141611 18.24844628 3.73293089 22.70807096 3.74243164 27.16772461 C3.74747256 29.10099835 3.75430519 31.03426826 3.76293945 32.9675293 C3.77501565 35.74008122 3.78073057 38.51258291 3.78515625 41.28515625 C3.79031754 42.15494614 3.79547882 43.02473602 3.80079651 43.92088318 C3.80099185 45.99187064 3.74958168 48.06275574 3.6875 50.1328125 C2.6875 51.1328125 2.6875 51.1328125 0.875 51.265625 C0.153125 51.26304687 -0.56875 51.26046875 -1.3125 51.2578125 C-2.034375 51.26039063 -2.75625 51.26296875 -3.5 51.265625 C-5.3125 51.1328125 -5.3125 51.1328125 -6.3125 50.1328125 C-6.41089214 48.6034662 -6.44048539 47.06961684 -6.44189453 45.53710938 C-6.44504669 44.55939575 -6.44819885 43.58168213 -6.45144653 42.57434082 C-6.4494223 41.51082397 -6.44739807 40.44730713 -6.4453125 39.3515625 C-6.44626923 38.26774292 -6.44722595 37.18392334 -6.44821167 36.06726074 C-6.44889365 33.7705886 -6.44703811 31.47391455 -6.44287109 29.17724609 C-6.43752312 25.64806822 -6.4428155 22.11901763 -6.44921875 18.58984375 C-6.44855797 16.36458305 -6.44727682 14.13932243 -6.4453125 11.9140625 C-6.44733673 10.85054565 -6.44936096 9.78702881 -6.45144653 8.69128418 C-6.44829437 7.71357056 -6.44514221 6.73585693 -6.44189453 5.72851562 C-6.44109894 4.86327271 -6.44030334 3.99802979 -6.43948364 3.10656738 C-6.1784439 -0.95087227 -3.44743901 0.00391246 0 0 Z " fill="#8D83FC" transform="translate(156.3125,146.8671875)"/>
<path d="M0 0 C1.06347656 0.00386719 2.12695312 0.00773437 3.22265625 0.01171875 C5.9375 0.3125 5.9375 0.3125 7.9375 2.3125 C8.19628906 4.80273437 8.19628906 4.80273437 8.203125 7.90625 C8.20699219 9.57494141 8.20699219 9.57494141 8.2109375 11.27734375 C8.20320313 12.44394531 8.19546875 13.61054687 8.1875 14.8125 C8.19523437 15.97910156 8.20296875 17.14570312 8.2109375 18.34765625 C8.20835937 19.46011719 8.20578125 20.57257813 8.203125 21.71875 C8.20086914 22.74291016 8.19861328 23.76707031 8.19628906 24.82226562 C7.9375 27.3125 7.9375 27.3125 5.9375 29.3125 C2.96875 29.61328125 2.96875 29.61328125 -0.5625 29.625 C-2.31046875 29.65013672 -2.31046875 29.65013672 -4.09375 29.67578125 C-5.0734375 29.55589844 -6.053125 29.43601562 -7.0625 29.3125 C-10.11093621 24.73984569 -9.39137593 20.19035396 -9.375 14.8125 C-9.39111328 13.75417969 -9.40722656 12.69585937 -9.42382812 11.60546875 C-9.42447266 10.59097656 -9.42511719 9.57648437 -9.42578125 8.53125 C-9.42876221 7.60248047 -9.43174316 6.67371094 -9.43481445 5.71679688 C-9.0625 3.3125 -9.0625 3.3125 -7.71777344 1.5090332 C-5.19954177 -0.31129916 -3.05909135 -0.04832101 0 0 Z " fill="#8F86FC" transform="translate(405.0625,47.6875)"/>
<path d="M0 0 C1.1653125 0.00515625 2.330625 0.0103125 3.53125 0.015625 C4.6965625 0.01046875 5.861875 0.0053125 7.0625 0 C10.03125 0.265625 10.03125 0.265625 12.03125 2.265625 C12.27416992 4.6640625 12.27416992 4.6640625 12.26171875 7.640625 C12.25978516 8.70796875 12.25785156 9.7753125 12.25585938 10.875 C12.23749023 12.55335937 12.23749023 12.55335937 12.21875 14.265625 C12.21810547 15.38453125 12.21746094 16.5034375 12.21679688 17.65625 C12.17153159 25.98506181 12.17153159 25.98506181 11.03125 28.265625 C8.73983714 28.31947021 6.44806812 28.35834587 4.15625 28.390625 C2.88007813 28.41382813 1.60390625 28.43703125 0.2890625 28.4609375 C-2.96875 28.265625 -2.96875 28.265625 -4.96875 26.265625 C-5.22753906 23.8671875 -5.22753906 23.8671875 -5.234375 20.890625 C-5.23695313 19.82328125 -5.23953125 18.7559375 -5.2421875 17.65625 C-5.23058594 15.97789063 -5.23058594 15.97789063 -5.21875 14.265625 C-5.22648438 13.14671875 -5.23421875 12.0278125 -5.2421875 10.875 C-5.23960937 9.80765625 -5.23703125 8.7403125 -5.234375 7.640625 C-5.23211914 6.65835938 -5.22986328 5.67609375 -5.22753906 4.6640625 C-4.82258092 0.91094099 -3.67063953 0.32842564 0 0 Z " fill="#8F85FC" transform="translate(234.96875,102.734375)"/>
<path d="M0 0 C1.0725 0.00515625 2.145 0.0103125 3.25 0.015625 C4.85875 0.00789063 4.85875 0.00789063 6.5 0 C9.25 0.265625 9.25 0.265625 11.25 2.265625 C11.50878906 4.75585937 11.50878906 4.75585937 11.515625 7.859375 C11.51949219 9.52806641 11.51949219 9.52806641 11.5234375 11.23046875 C11.51570312 12.39707031 11.50796875 13.56367187 11.5 14.765625 C11.50773438 15.93222656 11.51546875 17.09882812 11.5234375 18.30078125 C11.52085937 19.41324219 11.51828125 20.52570313 11.515625 21.671875 C11.51336914 22.69603516 11.51111328 23.72019531 11.50878906 24.77539062 C11.25 27.265625 11.25 27.265625 9.25 29.265625 C6.5 29.53125 6.5 29.53125 3.25 29.515625 C1.64125 29.52335937 1.64125 29.52335937 0 29.53125 C-2.75 29.265625 -2.75 29.265625 -4.75 27.265625 C-5.00878906 24.77539062 -5.00878906 24.77539062 -5.015625 21.671875 C-5.01820313 20.55941406 -5.02078125 19.44695312 -5.0234375 18.30078125 C-5.01183594 16.55087891 -5.01183594 16.55087891 -5 14.765625 C-5.00773438 13.59902344 -5.01546875 12.43242188 -5.0234375 11.23046875 C-5.02085937 10.11800781 -5.01828125 9.00554688 -5.015625 7.859375 C-5.01336914 6.83521484 -5.01111328 5.81105469 -5.00878906 4.75585938 C-4.62840755 1.0955844 -3.62018209 0.34967668 0 0 Z " fill="#8C82FC" transform="translate(520.75,47.734375)"/>
<path d="M0 0 C1.17433594 0.01417969 2.34867188 0.02835937 3.55859375 0.04296875 C5.32396484 0.05263672 5.32396484 0.05263672 7.125 0.0625 C9.99609375 0.23046875 9.99609375 0.23046875 10.99609375 1.23046875 C11.09581161 3.14505157 11.12689964 5.06329192 11.12890625 6.98046875 C11.13083984 8.7284375 11.13083984 8.7284375 11.1328125 10.51171875 C11.12894531 11.73890625 11.12507813 12.96609375 11.12109375 14.23046875 C11.12689453 16.07125 11.12689453 16.07125 11.1328125 17.94921875 C11.13152344 19.11453125 11.13023438 20.27984375 11.12890625 21.48046875 C11.12777832 22.558125 11.12665039 23.63578125 11.12548828 24.74609375 C10.99609375 27.23046875 10.99609375 27.23046875 9.99609375 28.23046875 C7.6429582 28.30318616 5.28775707 28.31417743 2.93359375 28.29296875 C1.64324219 28.28394531 0.35289063 28.27492187 -0.9765625 28.265625 C-1.97558594 28.25402344 -2.97460938 28.24242187 -4.00390625 28.23046875 C-6.0632177 24.11184584 -5.18879887 18.7568783 -5.19140625 14.23046875 C-5.20365234 13.1115625 -5.21589844 11.99265625 -5.22851562 10.83984375 C-5.23044922 9.7725 -5.23238281 8.70515625 -5.234375 7.60546875 C-5.23848389 6.62320313 -5.24259277 5.6409375 -5.24682617 4.62890625 C-4.86359047 0.8450796 -3.69585381 0.28355705 0 0 Z " fill="#8C82FC" transform="translate(42.00390625,102.76953125)"/>
<path d="M0 0 C0.80103149 0.00202423 1.60206299 0.00404846 2.42736816 0.00613403 C3.24483521 0.00517731 4.06230225 0.00422058 4.90454102 0.00323486 C6.63627194 0.00255308 8.3680054 0.00440724 10.09973145 0.00857544 C12.75978298 0.01392374 15.41966566 0.00863041 18.07971191 0.00222778 C19.75809771 0.00288857 21.43648339 0.00416973 23.11486816 0.00613403 C23.91589966 0.0041098 24.71693115 0.00208557 25.54223633 0 C31.15616738 0.02399575 31.15616738 0.02399575 32.27111816 1.13894653 C32.45861816 4.57644653 32.45861816 4.57644653 32.27111816 8.13894653 C29.75407011 10.65599458 28.19438917 10.38564252 24.75952148 10.4168396 C23.63604309 10.41076691 23.63604309 10.41076691 22.48986816 10.40457153 C21.72057983 10.40648499 20.9512915 10.40839844 20.15869141 10.41036987 C18.53128737 10.41173161 16.90387246 10.40803592 15.27648926 10.39968872 C12.78096186 10.38898874 10.28615434 10.39958405 7.79064941 10.41238403 C6.21122074 10.41106244 4.63179251 10.40850004 3.05236816 10.40457153 C2.30338257 10.40862 1.55439697 10.41266846 0.78271484 10.4168396 C-4.49895941 10.36886896 -4.49895941 10.36886896 -6.72888184 8.13894653 C-6.91638184 4.57644653 -6.91638184 4.57644653 -6.72888184 1.13894653 C-4.91322747 -0.67670783 -2.41618222 0.01032754 0 0 Z " fill="#9289FC" transform="translate(452.7288818359375,187.86105346679688)"/>
<path d="M0 0 C0.77602066 0.00202423 1.55204132 0.00404846 2.35157776 0.00613403 C3.14447708 0.00517731 3.9373764 0.00422058 4.75430298 0.00323486 C6.43475931 0.00255302 8.11521826 0.00440757 9.79566956 0.00857544 C12.37230846 0.01391663 14.94877249 0.00863425 17.52540588 0.00222778 C19.15496356 0.0028887 20.78452113 0.00417015 22.41407776 0.00613403 C23.18807419 0.0041098 23.96207062 0.00208557 24.75952148 0 C30.21932235 0.0239907 30.21932235 0.0239907 32.44923401 1.13894653 C32.57423401 4.51394653 32.57423401 4.51394653 32.44923401 8.13894653 C29.93218596 10.65599458 28.37250502 10.38564252 24.93763733 10.4168396 C23.81415894 10.41076691 23.81415894 10.41076691 22.66798401 10.40457153 C21.89869568 10.40648499 21.12940735 10.40839844 20.33680725 10.41036987 C18.70940321 10.41173161 17.08198831 10.40803592 15.4546051 10.39968872 C12.9590777 10.38898874 10.46427019 10.39958405 7.96876526 10.41238403 C6.38933658 10.41106244 4.80990835 10.40850004 3.23048401 10.40457153 C2.48149841 10.40862 1.73251282 10.41266846 0.96083069 10.4168396 C-4.32084356 10.36886896 -4.32084356 10.36886896 -6.55076599 8.13894653 C-6.73826599 4.57644653 -6.73826599 4.57644653 -6.55076599 1.13894653 C-4.76711258 -0.64470688 -2.37459594 0.01048017 0 0 Z " fill="#9086FC" transform="translate(452.55076599121094,146.86105346679688)"/>
<path d="M0 0 C0.77915771 0.00202423 1.55831543 0.00404846 2.36108398 0.00613403 C3.15635498 0.00517731 3.95162598 0.00422058 4.77099609 0.00323486 C6.45564859 0.0025531 8.1403037 0.00440711 9.82495117 0.00857544 C12.41257595 0.01392378 15.00002714 0.00863034 17.58764648 0.00222778 C19.22045937 0.00288857 20.85327215 0.00416973 22.48608398 0.00613403 C23.2652417 0.0041098 24.04439941 0.00208557 24.84716797 0 C30.30863294 0.02399549 30.30863294 0.02399549 31.42358398 1.13894653 C31.55639648 2.95144653 31.55639648 2.95144653 31.54858398 5.13894653 C31.55245117 6.22175903 31.55245117 6.22175903 31.55639648 7.32644653 C31.42358398 9.13894653 31.42358398 9.13894653 30.42358398 10.13894653 C27.76902205 10.23990218 25.14103223 10.27865652 22.48608398 10.27175903 C21.29317749 10.27319412 21.29317749 10.27319412 20.07617188 10.2746582 C18.39151938 10.27533996 16.70686427 10.27348596 15.0222168 10.26931763 C12.43459202 10.26396929 9.84714083 10.26926272 7.25952148 10.27566528 C5.6267086 10.2750045 3.99389582 10.27372334 2.36108398 10.27175903 C1.58192627 10.27378326 0.80276855 10.2758075 0 10.27789307 C-5.46146497 10.25389758 -5.46146497 10.25389758 -6.57641602 9.13894653 C-6.70922852 7.32644653 -6.70922852 7.32644653 -6.70141602 5.13894653 C-6.70399414 4.41707153 -6.70657227 3.69519653 -6.70922852 2.95144653 C-6.41408691 -1.0763683 -3.33269502 0.01464253 0 0 Z " fill="#8F85FC" transform="translate(189.576416015625,146.86105346679688)"/>
<path d="M0 0 C0.77915771 0.00202423 1.55831543 0.00404846 2.36108398 0.00613403 C3.15635498 0.00517731 3.95162598 0.00422058 4.77099609 0.00323486 C6.45564859 0.0025531 8.1403037 0.00440711 9.82495117 0.00857544 C12.41257595 0.01392378 15.00002714 0.00863034 17.58764648 0.00222778 C19.22045937 0.00288857 20.85327215 0.00416973 22.48608398 0.00613403 C23.2652417 0.0041098 24.04439941 0.00208557 24.84716797 0 C30.30863294 0.02399549 30.30863294 0.02399549 31.42358398 1.13894653 C31.55639648 2.95144653 31.55639648 2.95144653 31.54858398 5.13894653 C31.55245117 6.22175903 31.55245117 6.22175903 31.55639648 7.32644653 C31.42358398 9.13894653 31.42358398 9.13894653 30.42358398 10.13894653 C27.76902205 10.23990218 25.14103223 10.27865652 22.48608398 10.27175903 C21.29317749 10.27319412 21.29317749 10.27319412 20.07617188 10.2746582 C18.39151938 10.27533996 16.70686427 10.27348596 15.0222168 10.26931763 C12.43459202 10.26396929 9.84714083 10.26926272 7.25952148 10.27566528 C5.6267086 10.2750045 3.99389582 10.27372334 2.36108398 10.27175903 C1.58192627 10.27378326 0.80276855 10.2758075 0 10.27789307 C-5.46146497 10.25389758 -5.46146497 10.25389758 -6.57641602 9.13894653 C-6.70922852 7.32644653 -6.70922852 7.32644653 -6.70141602 5.13894653 C-6.70399414 4.41707153 -6.70657227 3.69519653 -6.70922852 2.95144653 C-6.41408691 -1.0763683 -3.33269502 0.01464253 0 0 Z " fill="#8F85FC" transform="translate(43.576416015625,146.86105346679688)"/>
<path d="M0 0 C2.27818415 -0.00218869 4.5558858 -0.0203553 6.83398438 -0.03930664 C8.27669105 -0.04224019 9.71940003 -0.04422524 11.16210938 -0.04516602 C13.13824219 -0.05132935 13.13824219 -0.05132935 15.15429688 -0.05761719 C18.28710938 0.18530273 18.28710938 0.18530273 20.28710938 2.18530273 C20.47460938 5.74780273 20.47460938 5.74780273 20.28710938 9.18530273 C18.55417958 10.91823253 16.32496602 10.3135032 14.015625 10.32424927 C13.28021484 10.32222504 12.54480469 10.32020081 11.78710938 10.31811523 C11.03623047 10.31907196 10.28535156 10.32002869 9.51171875 10.3210144 C7.92122311 10.32169612 6.3307247 10.31984245 4.74023438 10.31567383 C2.29746283 10.3103254 -0.14512484 10.31561907 -2.58789062 10.32202148 C-4.1295577 10.3213607 -5.67122466 10.32007954 -7.21289062 10.31811523 C-7.94830078 10.32013947 -8.68371094 10.3221637 -9.44140625 10.32424927 C-14.59793902 10.30025434 -14.59793902 10.30025434 -15.71289062 9.18530273 C-15.85404224 6.51471422 -15.7553617 3.86098036 -15.71289062 1.18530273 C-11.2085821 -1.06685153 -5.01432851 -0.00054174 0 0 Z " fill="#9087FC" transform="translate(461.712890625,166.814697265625)"/>
<path d="M0 0 C0.71353638 0.00202423 1.42707275 0.00404846 2.16223145 0.00613403 C2.89091431 0.00517731 3.61959717 0.00422058 4.37036133 0.00323486 C5.91377855 0.00255318 7.45719861 0.00440666 9.00061035 0.00857544 C11.37095544 0.01392391 13.74111104 0.00863011 16.1114502 0.00222778 C17.60754437 0.00288857 19.10363842 0.00416973 20.59973145 0.00613403 C21.31326782 0.0041098 22.0268042 0.00208557 22.76196289 0 C27.76602953 0.02399462 27.76602953 0.02399462 28.88098145 1.13894653 C29.01379395 2.95144653 29.01379395 2.95144653 29.00598145 5.13894653 C29.00984863 6.22175903 29.00984863 6.22175903 29.01379395 7.32644653 C28.88098145 9.13894653 28.88098145 9.13894653 27.88098145 10.13894653 C25.36004068 10.22742396 22.86667252 10.25421955 20.3458252 10.23660278 C19.21594933 10.23448036 19.21594933 10.23448036 18.06324768 10.23231506 C15.64828585 10.22670029 13.23341544 10.21414536 10.81848145 10.20144653 C9.18501924 10.19643343 7.55155558 10.1918702 5.91809082 10.18777466 C1.9056856 10.17672607 -2.10665096 10.1594516 -6.11901855 10.13894653 C-6.14591072 8.65987761 -6.16536477 7.18067171 -6.18151855 5.70144653 C-6.19312012 4.8777356 -6.20472168 4.05402466 -6.2166748 3.20535278 C-6.02234544 -0.90665658 -3.51525692 0.01685574 0 0 Z " fill="#8F85FC" transform="translate(189.1190185546875,166.86105346679688)"/>
<path d="M0 0 C0.71353638 0.00202423 1.42707275 0.00404846 2.16223145 0.00613403 C2.89091431 0.00517731 3.61959717 0.00422058 4.37036133 0.00323486 C5.91377855 0.00255318 7.45719861 0.00440666 9.00061035 0.00857544 C11.37095544 0.01392391 13.74111104 0.00863011 16.1114502 0.00222778 C17.60754437 0.00288857 19.10363842 0.00416973 20.59973145 0.00613403 C21.31326782 0.0041098 22.0268042 0.00208557 22.76196289 0 C27.76602953 0.02399462 27.76602953 0.02399462 28.88098145 1.13894653 C29.01379395 2.95144653 29.01379395 2.95144653 29.00598145 5.13894653 C29.00984863 6.22175903 29.00984863 6.22175903 29.01379395 7.32644653 C28.88098145 9.13894653 28.88098145 9.13894653 27.88098145 10.13894653 C25.44437699 10.23977417 23.03673444 10.27867257 20.59973145 10.27175903 C19.87104858 10.27271576 19.14236572 10.27367249 18.39160156 10.2746582 C16.84818435 10.27533989 15.30476428 10.27348641 13.76135254 10.26931763 C11.39100745 10.26396916 9.02085185 10.26926295 6.6505127 10.27566528 C5.15441852 10.2750045 3.65832447 10.27372333 2.16223145 10.27175903 C1.09192688 10.27479538 1.09192688 10.27479538 0 10.27789307 C-5.00406664 10.25389845 -5.00406664 10.25389845 -6.11901855 9.13894653 C-6.25183105 7.32644653 -6.25183105 7.32644653 -6.24401855 5.13894653 C-6.24659668 4.41707153 -6.2491748 3.69519653 -6.25183105 2.95144653 C-5.96791193 -0.9232144 -3.25629297 0.015614 0 0 Z " fill="#8F85FC" transform="translate(43.1190185546875,166.86105346679688)"/>
<path d="M0 0 C5.25105442 -0.02464928 10.50207545 -0.04283568 15.75317383 -0.05493164 C17.54094021 -0.05997218 19.32870245 -0.06680454 21.11645508 -0.07543945 C23.68051168 -0.0875173 26.24451397 -0.09323094 28.80859375 -0.09765625 C29.6127623 -0.10281754 30.41693085 -0.10797882 31.24546814 -0.11329651 C33.16401715 -0.11349215 35.08245368 -0.06201983 37 0 C38 1 38 1 38.125 4.5 C38 8 38 8 37 9 C34.26105915 9.08858646 31.5474673 9.11523479 28.80859375 9.09765625 C27.98875504 9.0962413 27.16891632 9.09482635 26.32423401 9.09336853 C23.69528618 9.08775289 21.06642227 9.07519779 18.4375 9.0625 C16.65950643 9.05748701 14.88151154 9.05292376 13.10351562 9.04882812 C8.73564455 9.03777839 4.36783652 9.02050331 0 9 C0 6.03 0 3.06 0 0 Z " fill="#8C82FC" transform="translate(183,188)"/>
<path d="M0 0 C1.56047445 0.00015913 3.12095416 0.00585397 4.68139648 0.01586914 C5.91115456 0.01799156 5.91115456 0.01799156 7.16575623 0.02015686 C9.79470406 0.0257725 12.42356797 0.0383276 15.05249023 0.05102539 C16.8304838 0.05603838 18.60847869 0.06060163 20.38647461 0.06469727 C24.75434569 0.07574701 29.12215371 0.09302208 33.48999023 0.11352539 C33.48999023 3.08352539 33.48999023 6.05352539 33.48999023 9.11352539 C28.23893581 9.13817467 22.98791478 9.15636107 17.73681641 9.16845703 C15.94905003 9.17349757 14.16128779 9.18032993 12.37353516 9.18896484 C9.80947855 9.20104269 7.24547626 9.20675633 4.68139648 9.21118164 C3.47514366 9.21892357 3.47514366 9.21892357 2.24452209 9.2268219 C0.32597309 9.22701754 -1.59246345 9.17554522 -3.51000977 9.11352539 C-4.51000977 8.11352539 -4.51000977 8.11352539 -4.63500977 4.61352539 C-4.47541063 0.14474967 -4.47541063 0.14474967 0 0 Z " fill="#8C82FC" transform="translate(41.510009765625,187.886474609375)"/>
<path d="M0 0 C1 1 1 1 1.11352539 3.77563477 C1.10828857 4.98533936 1.10305176 6.19504395 1.09765625 7.44140625 C1.09443359 8.74658203 1.09121094 10.05175781 1.08789062 11.39648438 C1.07953401 12.7851569 1.07106905 14.17382877 1.0625 15.5625 C1.05748666 16.95507656 1.05292347 18.34765481 1.04882812 19.74023438 C1.03699434 23.1601987 1.0205088 26.58007844 1 30 C-0.47906892 30.02689216 -1.95827483 30.04634621 -3.4375 30.0625 C-4.67306641 30.07990234 -4.67306641 30.07990234 -5.93359375 30.09765625 C-8 30 -8 30 -9 29 C-9.08767112 26.92737924 -9.10695873 24.85179706 -9.09765625 22.77734375 C-9.09443359 21.51728516 -9.09121094 20.25722656 -9.08789062 18.95898438 C-9.07953403 17.61848891 -9.07106907 16.27799412 -9.0625 14.9375 C-9.0574866 13.59310058 -9.05292342 12.2486994 -9.04882812 10.90429688 C-9.03699488 7.60282059 -9.02050971 4.30143197 -9 1 C-6.01787087 -0.49106457 -3.28390342 -0.11941467 0 0 Z " fill="#9086FC" transform="translate(387,167)"/>
<path d="M0 0 C2.05078125 0.03255208 4.1015625 0.06510417 6.15234375 0.09765625 C6.68859375 1.19078125 7.22484375 2.28390625 7.77734375 3.41015625 C9.8776385 7.14233469 12.12142975 8.54025766 16.15234375 10.09765625 C16.15234375 12.73765625 16.15234375 15.37765625 16.15234375 18.09765625 C11.80522652 19.60583978 9.33771487 18.31851908 5.34375 16.390625 C1.43384775 14.08371298 -1.21239315 11.53581394 -2.40234375 6.96875 C-2.72265625 4.78515625 -2.72265625 4.78515625 -2.84765625 1.09765625 C-1.84765625 0.09765625 -1.84765625 0.09765625 0 0 Z " fill="#9086FC" transform="translate(398.84765625,178.90234375)"/>
<path d="M0 0 C2.05078125 0.03255208 4.1015625 0.06510417 6.15234375 0.09765625 C6.33796875 1.21140625 6.52359375 2.32515625 6.71484375 3.47265625 C7.18921875 4.66890625 7.66359375 5.86515625 8.15234375 7.09765625 C11.63191904 8.56848172 11.63191904 8.56848172 15.15234375 9.09765625 C16.15234375 10.09765625 16.15234375 10.09765625 16.25 11.9453125 C16.21744792 13.99609375 16.18489583 16.046875 16.15234375 18.09765625 C12.23270177 19.40420358 10.2547094 18.59389787 6.4453125 17.2578125 C2.14495018 15.08199034 -0.71621094 11.36054686 -2.84765625 7.09765625 C-2.97265625 4.03515625 -2.97265625 4.03515625 -2.84765625 1.09765625 C-1.84765625 0.09765625 -1.84765625 0.09765625 0 0 Z " fill="#9187FC" transform="translate(492.84765625,178.90234375)"/>
<path d="M0 0 C5.93413588 0.23736544 9.78903509 1.95183013 14 6 C16.16256697 9.24385045 17.09609625 10.91891721 16.75 14.8125 C16 17 16 17 15 18 C12.66702567 18.04092937 10.33294775 18.04241723 8 18 C7.79375 17.05125 7.5875 16.1025 7.375 15.125 C6.29936517 11.71585849 6.29936517 11.71585849 2.9375 10.6875 C1.968125 10.460625 0.99875 10.23375 0 10 C-1 9 -1 9 -1.1328125 7.1875 C-1.13023437 6.465625 -1.12765625 5.74375 -1.125 5 C-1.12757813 4.278125 -1.13015625 3.55625 -1.1328125 2.8125 C-1 1 -1 1 0 0 Z " fill="#9289FC" transform="translate(514,147)"/>
<path d="M0 0 C6.38752885 0.56479202 10.55122547 2.44271877 15 7 C17.31503104 10.26208919 17.17874634 13.06758042 17 17 C13.95066547 17.28767307 11.0383271 17.44649251 8 17 C6.3125 14.6875 6.3125 14.6875 5 12 C1.93319201 10.17370206 1.93319201 10.17370206 -1 9 C-1.09765625 2.84765625 -1.09765625 2.84765625 -1 1 C-0.67 0.67 -0.34 0.34 0 0 Z " fill="#9086FC" transform="translate(420,147)"/>
<path d="M0 0 C0.721875 0.00257813 1.44375 0.00515625 2.1875 0.0078125 C2.909375 0.00523437 3.63125 0.00265625 4.375 0 C6.1875 0.1328125 6.1875 0.1328125 7.1875 1.1328125 C7.26069621 3.82936104 7.27992537 6.49972708 7.25 9.1953125 C7.24548828 9.95392578 7.24097656 10.71253906 7.23632812 11.49414062 C7.2245068 13.37373121 7.20657078 15.25328149 7.1875 17.1328125 C5.70843108 17.15970466 4.22922517 17.17915871 2.75 17.1953125 C1.51443359 17.21271484 1.51443359 17.21271484 0.25390625 17.23046875 C-1.8125 17.1328125 -1.8125 17.1328125 -2.8125 16.1328125 C-2.91225032 13.62145146 -2.95132183 11.14377835 -2.9375 8.6328125 C-2.94136719 7.93027344 -2.94523437 7.22773438 -2.94921875 6.50390625 C-2.93710182 0.21521867 -2.93710182 0.21521867 0 0 Z " fill="#8F86FC" transform="translate(380.8125,146.8671875)"/>
<path d="M0 0 C3.5 0.125 3.5 0.125 4.5 1.125 C4.57319621 3.82154854 4.59242537 6.49191458 4.5625 9.1875 C4.55798828 9.94611328 4.55347656 10.70472656 4.54882812 11.48632812 C4.5370068 13.36591871 4.51907078 15.24546899 4.5 17.125 C1.53 17.125 -1.44 17.125 -4.5 17.125 C-4.52684679 14.47909986 -4.54676357 11.83346904 -4.5625 9.1875 C-4.57087891 8.43275391 -4.57925781 7.67800781 -4.58789062 6.90039062 C-4.59652441 4.97505687 -4.55224333 3.04964419 -4.5 1.125 C-3.5 0.125 -3.5 0.125 0 0 Z " fill="#8C82FC" transform="translate(88.5,179.875)"/>
<path d="M0 0 C0.9075 0.00257813 1.815 0.00515625 2.75 0.0078125 C4.11125 0.00394531 4.11125 0.00394531 5.5 0 C7.75 0.1328125 7.75 0.1328125 8.75 1.1328125 C8.8828125 2.9453125 8.8828125 2.9453125 8.875 5.1328125 C8.87757813 5.8546875 8.88015625 6.5765625 8.8828125 7.3203125 C8.75 9.1328125 8.75 9.1328125 7.75 10.1328125 C6.08570949 10.23105187 4.41718069 10.26254881 2.75 10.2578125 C1.38875 10.26167969 1.38875 10.26167969 0 10.265625 C-2.25 10.1328125 -2.25 10.1328125 -3.25 9.1328125 C-3.3828125 7.3203125 -3.3828125 7.3203125 -3.375 5.1328125 C-3.37757813 4.4109375 -3.38015625 3.6890625 -3.3828125 2.9453125 C-3.1821203 0.20645422 -2.73864144 0.16165592 0 0 Z " fill="#9188FC" transform="translate(137.25,146.8671875)"/>
<path d="M0 0 C2.625 0.375 2.625 0.375 5 1 C5.042721 2.66611905 5.04063832 4.33382885 5 6 C4 7 4 7 1.4375 7.0625 C0.2309375 7.0315625 0.2309375 7.0315625 -1 7 C-1.625 4.625 -1.625 4.625 -2 2 C-1.34 1.34 -0.68 0.68 0 0 Z " fill="#BBB5FD" transform="translate(293,226)"/>
<path d="M0 0 C1.67542976 0.28604898 3.34385343 0.61781233 5 1 C5 2.65 5 4.3 5 6 C2.625 6.625 2.625 6.625 0 7 C-0.66 6.34 -1.32 5.68 -2 5 C-1.46428571 1.46428571 -1.46428571 1.46428571 0 0 Z " fill="#D5D1FD" transform="translate(461,226)"/>
<path d="M0 0 C1.67542976 0.28604898 3.34385343 0.61781233 5 1 C5 2.65 5 4.3 5 6 C2.625 6.625 2.625 6.625 0 7 C-0.66 6.34 -1.32 5.68 -2 5 C-1.46428571 1.46428571 -1.46428571 1.46428571 0 0 Z " fill="#D4D0FD" transform="translate(418,226)"/>
<path d="M0 0 C1.67542976 0.28604898 3.34385343 0.61781233 5 1 C5 2.65 5 4.3 5 6 C2.625 6.625 2.625 6.625 0 7 C-0.66 6.34 -1.32 5.68 -2 5 C-1.46428571 1.46428571 -1.46428571 1.46428571 0 0 Z " fill="#D4D0FD" transform="translate(250,226)"/>
<path d="M0 0 C0.625 1.875 0.625 1.875 1 4 C0.34 4.66 -0.32 5.32 -1 6 C-3.625 5.625 -3.625 5.625 -6 5 C-6 3.35 -6 1.7 -6 0 C-3.50907189 -1.24546405 -2.58919267 -0.7767578 0 0 Z " fill="#D5D1FD" transform="translate(202,227)"/>
<path d="M0 0 C2.475 0.495 2.475 0.495 5 1 C5.38218767 2.65614657 5.71395102 4.32457024 6 6 C5 7 5 7 2.4375 7.0625 C1.2309375 7.0315625 1.2309375 7.0315625 0 7 C0 4.69 0 2.38 0 0 Z " fill="#CECAFD" transform="translate(339,226)"/>
<path d="M0 0 C0.66 0 1.32 0 2 0 C2 0.99 2 1.98 2 3 C2.99 3 3.98 3 5 3 C5.33 2.01 5.66 1.02 6 0 C6 2.31 6 4.62 6 7 C5.67 6.01 5.34 5.02 5 4 C4.01 4 3.02 4 2 4 C2 4.99 2 5.98 2 7 C1.34 7 0.68 7 0 7 C0 4.69 0 2.38 0 0 Z " fill="#BAB4FD" transform="translate(382,226)"/>
<path d="M0 0 C0.33 0.99 0.66 1.98 1 3 C1.99 3 2.98 3 4 3 C4 2.01 4 1.02 4 0 C4.66 0 5.32 0 6 0 C6 2.31 6 4.62 6 7 C5.34 7 4.68 7 4 7 C4 6.01 4 5.02 4 4 C3.01 4 2.02 4 1 4 C0.67 4.99 0.34 5.98 0 7 C0 4.69 0 2.38 0 0 Z " fill="#B9B3FC" transform="translate(144,226)"/>
<path d="M0 0 C0.33 0.99 0.66 1.98 1 3 C1.99 3 2.98 3 4 3 C4 2.01 4 1.02 4 0 C4.66 0 5.32 0 6 0 C6 2.31 6 4.62 6 7 C5.34 7 4.68 7 4 7 C4 6.01 4 5.02 4 4 C3.01 4 2.02 4 1 4 C0.67 4.99 0.34 5.98 0 7 C0 4.69 0 2.38 0 0 Z " fill="#BCB6FD" transform="translate(119,226)"/>
<path d="M0 0 C1.65 0 3.3 0 5 0 C4.01 0.33 3.02 0.66 2 1 C2 1.66 2 2.32 2 3 C2.99 3.33 3.98 3.66 5 4 C4.01 4 3.02 4 2 4 C2 4.66 2 5.32 2 6 C2.99 6.33 3.98 6.66 5 7 C3.35 7 1.7 7 0 7 C0 4.69 0 2.38 0 0 Z " fill="#B8B3FD" transform="translate(398,226)"/>
<path d="M0 0 C2.50037734 2.17424117 3.43628586 3.73045798 4 7 C3.34 7 2.68 7 2 7 C2 6.34 2 5.68 2 5 C1.01 5 0.02 5 -1 5 C-1 5.66 -1 6.32 -1 7 C-1.66 6.67 -2.32 6.34 -3 6 C-2.01 4.02 -1.02 2.04 0 0 Z " fill="#BDB7FD" transform="translate(270,226)"/>
<path d="M0 0 C1.98 0 3.96 0 6 0 C6 0.66 6 1.32 6 2 C5.34 2 4.68 2 4 2 C4 3.65 4 5.3 4 7 C3.34 7 2.68 7 2 7 C2 5.35 2 3.7 2 2 C1.34 2 0.68 2 0 2 C0 1.34 0 0.68 0 0 Z " fill="#CBC6FD" transform="translate(276,226)"/>
<path d="M0 0 C2 1 2 1 3.125 4.0625 C3.41375 5.031875 3.7025 6.00125 4 7 C3.34 7 2.68 7 2 7 C2 6.34 2 5.68 2 5 C0.68 5.33 -0.64 5.66 -2 6 C-1.125 1.125 -1.125 1.125 0 0 Z " fill="#BAB4FD" transform="translate(321,226)"/>
<path d="M0 0 C2.50037734 2.17424117 3.43628586 3.73045798 4 7 C3.34 7 2.68 7 2 7 C2 6.34 2 5.68 2 5 C0.68 5.33 -0.64 5.66 -2 6 C-1.34 4.02 -0.68 2.04 0 0 Z " fill="#BBB5FD" transform="translate(165,226)"/>
<path d="M0 0 C2.50037734 2.17424117 3.43628586 3.73045798 4 7 C1.525 6.01 1.525 6.01 -1 5 C-1.33 5.66 -1.66 6.32 -2 7 C-1.125 2.25 -1.125 2.25 0 0 Z " fill="#B9B2FD" transform="translate(89,226)"/>
<path d="M0 0 C1.32 0 2.64 0 4 0 C3.6875 2.375 3.6875 2.375 3 5 C2.01 5.66 1.02 6.32 0 7 C0 4.69 0 2.38 0 0 Z " fill="#B5AFFD" transform="translate(173,226)"/>
<path d="M0 0 C1.65 0 3.3 0 5 0 C5 0.66 5 1.32 5 2 C4.34 2 3.68 2 3 2 C3 3.65 3 5.3 3 7 C2.34 7 1.68 7 1 7 C0.67 4.69 0.34 2.38 0 0 Z " fill="#C7C2FD" transform="translate(96,226)"/>
<path d="M0 0 C0.99 0.33 1.98 0.66 3 1 C3.6875 3.0625 3.6875 3.0625 4 5 C2.02 5.99 2.02 5.99 0 7 C0 4.69 0 2.38 0 0 Z " fill="#C4BFFD" transform="translate(227,226)"/>
<path d="M0 0 C0.99 0.33 1.98 0.66 3 1 C2.67 2.32 2.34 3.64 2 5 C1.01 5 0.02 5 -1 5 C-0.67 3.35 -0.34 1.7 0 0 Z " fill="#F9F8FE" transform="translate(294,227)"/>
</svg>
